<svg xmlns="http://www.w3.org/2000/svg" viewBox="0 0 410 404"><defs><linearGradient id="a" x1="6.049" y1="32.872" x2="235.316" y2="344.919" gradientUnits="userSpaceOnUse"><stop stop-color="#41d1ff"/><stop offset="1" stop-color="#bd34fe"/></linearGradient><linearGradient id="b" x1="194.651" y1="8.818" x2="236.076" y2="292.989" gradientUnits="userSpaceOnUse"><stop stop-color="#ffea83"/><stop offset="0.083" stop-color="#ffdd35"/><stop offset="1" stop-color="#ffa800"/></linearGradient></defs><path fill="url(#a)" d="m399.641 59.525-183.211 326.9a10.34 10.34 0 0 1-17.963.118L9.358 59.642a10.339 10.339 0 0 1 7.06-15.319L203.58 0a10.34 10.34 0 0 1 7.128 1.37l182.51 42.433a10.338 10.338 0 0 1 6.423 15.722Z"/><path fill="url(#b)" d="m292.965 1.574-157.247 36.47a5.156 5.156 0 0 0-3.992 5.01l-2.31 167.635a5.156 5.156 0 0 0 6.632 5.052l43.974-11.823c3.444-.926 6.57 2.305 5.53 5.725l-13.041 43.572c-.99 3.309 1.985 6.502 5.37 5.78l27.165-5.816c3.388-.725 6.366 2.481 5.307 5.805l-20.257 63.166c-1.053 3.285 1.896 6.529 5.29 5.837l17.437-3.668c3.386-.713 6.351 2.496 5.294 5.814l-31.761 99.866c-.98 3.086 2.274 5.84 5.137 4.353l14.455-7.489a5.156 5.156 0 0 0 2.61-2.887l115.912-355.004c1.047-3.209-1.926-6.399-5.31-5.695l-45.403 9.403c-3.385.703-6.361-2.493-5.311-5.811l18.683-57.114c1.048-3.206-1.92-6.394-5.303-5.699Z"/></svg>
